<svg xmlns="http://www.w3.org/2000/svg" xmlns:xlink="http://www.w3.org/1999/xlink" version="1.1" style="" xml:space="preserve" width="300" height="332"><rect id="backgroundrect" width="100%" height="100%" x="0" y="0" fill="none" stroke="none"/>























<g class="currentLayer" style=""><title>Layer 1</title><g id="svg_1" class="selected" fill="#bd2440" fill-opacity="1">
	<g id="svg_2" fill="#bd2440" fill-opacity="1">
		<path d="M235.4,125.2l-62.8-74.8c-0.8-0.8-1.2-0.8-1.6-1.2c-0.4,0-0.4-0.4-0.4-0.4c-0.8-0.4-1.6-0.4-2.4-0.4H37.8    c-3.6,0-6.4,2.8-6.4,6.4v270.4c0,3.6,2.8,6.4,6.4,6.4h192.8c3.6,0,6.4-2.8,6.4-6.4v-196C237,127.6,236.6,126.4,235.4,125.2z     M173.8,71.6l41.6,49.6h-41.6V71.6z M224.6,318.8H43.8v-258h117.6v66.4c0,3.6,2.8,6.4,6.4,6.4h56.8V318.8z" id="svg_3" fill="#bd2440" fill-opacity="1"/>
	</g>
</g><g id="svg_4" class="selected" fill="#bd2440" fill-opacity="1">
	<g id="svg_5" fill="#bd2440" fill-opacity="1">
		<path d="M136.2,100.4H78.6c-3.6,0-6.4,2.8-6.4,6.4s2.8,6.4,6.4,6.4h57.6c3.6,0,6.4-2.8,6.4-6.4    C142.6,103.2,139.8,100.4,136.2,100.4z" id="svg_6" fill="#bd2440" fill-opacity="1"/>
	</g>
</g><g id="svg_7" class="selected" fill="#bd2440" fill-opacity="1">
	<g id="svg_8" fill="#bd2440" fill-opacity="1">
		<path d="M136.2,245.2H78.6c-3.6,0-6.4,2.8-6.4,6.4c0,3.6,2.8,6.4,6.4,6.4h57.6c3.6,0,6.4-2.8,6.4-6.4    C142.6,248,139.8,245.2,136.2,245.2z" id="svg_9" fill="#bd2440" fill-opacity="1"/>
	</g>
</g><g id="svg_10" class="selected" fill="#bd2440" fill-opacity="1">
	<g id="svg_11" fill="#bd2440" fill-opacity="1">
		<path d="M193,155.2H78.6c-3.6,0-6.4,2.8-6.4,6.4s2.8,6.4,6.4,6.4H193c3.6,0,6.4-2.8,6.4-6.4C199,158,196.2,155.2,193,155.2z" id="svg_12" fill="#bd2440" fill-opacity="1"/>
	</g>
</g><g id="svg_13" class="selected" fill="#bd2440" fill-opacity="1">
	<g id="svg_14" fill="#bd2440" fill-opacity="1">
		<path d="M191.4,183.2H77c-3.6,0-6.4,2.8-6.4,6.4c0,3.6,2.8,6.4,6.4,6.4h114.4c3.6,0,6.4-2.8,6.4-6.4    C197.8,186,194.6,183.2,191.4,183.2z" id="svg_15" fill="#bd2440" fill-opacity="1"/>
	</g>
</g><g id="svg_16" class="selected" fill="#bd2440" fill-opacity="1">
	<g id="svg_17" fill="#bd2440" fill-opacity="1">
		<path d="M191.4,213.6H77c-3.6,0-6.4,2.8-6.4,6.4c0,3.6,2.8,6.4,6.4,6.4h114.4c3.6,0,6.4-2.8,6.4-6.4    C197.8,216.4,194.6,213.6,191.4,213.6z" id="svg_18" fill="#bd2440" fill-opacity="1"/>
	</g>
</g><g id="svg_19" class="selected" fill="#bd2440" fill-opacity="1">
	<g id="svg_20" fill="#bd2440" fill-opacity="1">
		<path d="M251.8,0c-26.8,0-48.4,21.6-48.4,48.4s21.6,48.4,48.4,48.4s48.4-21.6,48.4-48.4S278.6,0,251.8,0z M251.8,84.4    c-20,0-36-16-36-36s16-36,36-36s36,16,36,36S271.4,84.4,251.8,84.4z" id="svg_21" fill="#bd2440" fill-opacity="1"/>
	</g>
</g><g id="svg_22" class="selected" fill="#bd2440" fill-opacity="1">
	<g id="svg_23" fill="#bd2440" fill-opacity="1">
		<path d="M274.6,34.8c-1.6-2.8-5.6-3.2-8.4-1.2l-20.8,16l-6.8-10c-2-2.8-6-3.6-8.8-1.6c-2.8,2-3.6,6-1.6,8.8L239,62    c0.8,1.2,2.4,2.4,4,2.4c0.4,0,0.8,0,0.8,0c1.2,0,2.8-0.4,3.6-1.2l26-19.6C276.2,41.6,276.6,37.6,274.6,34.8z" id="svg_24" fill="#bd2440" fill-opacity="1"/>
	</g>
</g><g id="svg_25" class="">
</g><g id="svg_26" class="">
</g><g id="svg_27" class="">
</g><g id="svg_28" class="">
</g><g id="svg_29" class="">
</g><g id="svg_30" class="">
</g><g id="svg_31" class="">
</g><g id="svg_32" class="">
</g><g id="svg_33" class="">
</g><g id="svg_34" class="">
</g><g id="svg_35" class="">
</g><g id="svg_36" class="">
</g><g id="svg_37" class="">
</g><g id="svg_38" class="">
</g><g id="svg_39" class="">
</g></g></svg>